<svg width="100" height="100" viewBox="0 0 100 100" fill="none" xmlns="http://www.w3.org/2000/svg">
<g clip-path="url(#clip0_36_225)">
<path d="M89.98 16.9C92.75 16.9 95 19.15 95 21.92V78.08C95 80.85 92.75 83.1 89.98 83.1H10.02C7.25 83.1 5 80.85 5 78.08V21.92C5 19.15 7.25 16.9 10.02 16.9H89.98ZM89.98 13.9H10.02C5.59 13.9 2 17.49 2 21.92V78.08C2 82.51 5.59 86.1 10.02 86.1H89.98C94.41 86.1 98 82.51 98 78.08V21.92C98 17.49 94.41 13.9 89.98 13.9Z" fill="black"/>
<path d="M45.03 54.68H40.06V35.94C38.24 37.64 36.1 38.9 33.64 39.71V35.2C34.94 34.78 36.35 33.97 37.87 32.78C39.39 31.59 40.44 30.21 41 28.63H45.04V54.68H45.03Z" fill="black"/>
<path d="M60.1401 28.63C62.6501 28.63 64.6201 29.53 66.0301 31.32C67.7201 33.44 68.5601 36.96 68.5601 41.88C68.5601 46.8 67.7101 50.32 66.0101 52.46C64.6101 54.23 62.6501 55.11 60.1301 55.11C57.6101 55.11 55.5701 54.14 54.0201 52.2C52.4801 50.26 51.7001 46.8 51.7001 41.82C51.7001 36.84 52.5501 33.42 54.2501 31.27C55.6501 29.5 57.6101 28.62 60.1301 28.62L60.1401 28.63ZM60.1401 32.75C59.5401 32.75 59.0001 32.94 58.5301 33.32C58.0601 33.7 57.6901 34.39 57.4301 35.38C57.0901 36.67 56.9201 38.83 56.9201 41.87C56.9201 44.91 57.0701 47.01 57.3801 48.14C57.6901 49.28 58.0701 50.04 58.5401 50.41C59.0101 50.78 59.5401 50.98 60.1401 50.98C60.7401 50.98 61.2801 50.79 61.7501 50.4C62.2201 50.01 62.5901 49.33 62.8501 48.34C63.1901 47.07 63.3601 44.91 63.3601 41.86C63.3601 38.81 63.2101 36.73 62.9001 35.59C62.5901 34.45 62.2101 33.69 61.7401 33.31C61.2701 32.93 60.7401 32.74 60.1401 32.74V32.75Z" fill="black"/>
<path d="M22.25 69.01L40.55 76.62V61.39L22.25 69.01Z" fill="black"/>
<path d="M77.75 69.01H39.16" stroke="black" stroke-width="4.92" stroke-miterlimit="10"/>
</g>
<defs>
<clipPath id="clip0_36_225">
<rect width="100" height="100" fill="white"/>
</clipPath>
</defs>
</svg>
