<svg width="100" height="100" viewBox="0 0 100 100" fill="none" xmlns="http://www.w3.org/2000/svg">
<g clip-path="url(#clip0_36_211)">
<path d="M78.2 5.12C80.97 5.12 83.22 7.37 83.22 10.14V90.1C83.22 92.87 80.97 95.12 78.2 95.12H22.04C19.27 95.12 17.02 92.87 17.02 90.1V10.14C17.02 7.37 19.27 5.12 22.04 5.12H78.2ZM78.2 2.12H22.04C17.61 2.12 14.02 5.71 14.02 10.14V90.1C14.02 94.53 17.61 98.12 22.04 98.12H78.2C82.63 98.12 86.22 94.53 86.22 90.1V10.14C86.22 5.71 82.63 2.12 78.2 2.12Z" fill="black"/>
<path d="M45.32 59.07H41.37V44.17C39.93 45.52 38.22 46.52 36.26 47.17V43.58C37.29 43.24 38.41 42.6 39.62 41.66C40.83 40.72 41.66 39.62 42.11 38.36H45.32V59.07Z" fill="black"/>
<path d="M51.28 53.76L55.22 53.35C55.33 54.24 55.67 54.95 56.22 55.47C56.77 55.99 57.41 56.25 58.13 56.25C58.96 56.25 59.65 55.91 60.23 55.24C60.8 54.57 61.09 53.56 61.09 52.21C61.09 50.95 60.81 50 60.24 49.36C59.67 48.73 58.93 48.41 58.02 48.41C56.88 48.41 55.87 48.91 54.97 49.92L51.76 49.46L53.79 38.73H64.24V42.43H56.78L56.16 45.93C57.04 45.49 57.94 45.27 58.86 45.27C60.61 45.27 62.1 45.91 63.32 47.18C64.54 48.46 65.15 50.11 65.15 52.14C65.15 53.84 64.66 55.35 63.67 56.68C62.33 58.5 60.47 59.41 58.09 59.41C56.19 59.41 54.63 58.9 53.43 57.88C52.23 56.86 51.51 55.48 51.28 53.76Z" fill="black"/>
<path d="M50.0001 11.71L45.6801 22.09H54.3201L50.0001 11.71Z" fill="black"/>
<path d="M50 32.48V21.31" stroke="black" stroke-width="2.79" stroke-miterlimit="10"/>
<path d="M50.0001 88.29L54.3201 77.91H45.6801L50.0001 88.29Z" fill="black"/>
<path d="M50 67.52V78.69" stroke="black" stroke-width="2.79" stroke-miterlimit="10"/>
</g>
<defs>
<clipPath id="clip0_36_211">
<rect width="100" height="100" fill="white"/>
</clipPath>
</defs>
</svg>
