<svg width="100" height="100" viewBox="0 0 100 100" fill="none" xmlns="http://www.w3.org/2000/svg">
<g clip-path="url(#clip0_36_193)">
<path d="M89.98 16.9C92.75 16.9 95 19.15 95 21.92V78.08C95 80.85 92.75 83.1 89.98 83.1H10.02C7.25 83.1 5 80.85 5 78.08V21.92C5 19.15 7.25 16.9 10.02 16.9H89.98ZM89.98 13.9H10.02C5.59 13.9 2 17.49 2 21.92V78.08C2 82.51 5.59 86.1 10.02 86.1H89.98C94.41 86.1 98 82.51 98 78.08V21.92C98 17.49 94.41 13.9 89.98 13.9Z" fill="black"/>
<path d="M40.27 63.23V57.5H28.61V52.72L40.97 34.63H45.56V52.7H49.1V57.5H45.56V63.23H40.27ZM40.27 52.7V42.97L33.72 52.7H40.27Z" fill="black"/>
<path d="M60.9199 34.63C63.6799 34.63 65.8399 35.61 67.3899 37.58C69.2399 39.91 70.1699 43.78 70.1699 49.18C70.1699 54.58 69.2399 58.44 67.3699 60.8C65.8299 62.74 63.6799 63.71 60.9199 63.71C58.1599 63.71 55.9099 62.65 54.2199 60.51C52.5199 58.38 51.6699 54.58 51.6699 49.11C51.6699 43.64 52.5999 39.89 54.4699 37.53C56.0099 35.59 58.1599 34.62 60.9199 34.62V34.63ZM60.9199 39.16C60.2599 39.16 59.6699 39.37 59.1499 39.79C58.6299 40.21 58.2299 40.97 57.9499 42.05C57.5699 43.46 57.3899 45.84 57.3899 49.18C57.3899 52.52 57.5599 54.82 57.8899 56.07C58.2199 57.32 58.6499 58.15 59.1599 58.57C59.6699 58.98 60.2599 59.19 60.9199 59.19C61.5799 59.19 62.1699 58.98 62.6899 58.56C63.2099 58.14 63.6099 57.38 63.8899 56.3C64.2699 54.9 64.4499 52.53 64.4499 49.19C64.4499 45.85 64.2799 43.55 63.9499 42.3C63.6199 41.05 63.1899 40.22 62.6799 39.79C62.1699 39.37 61.5799 39.16 60.9199 39.16Z" fill="black"/>
</g>
<defs>
<clipPath id="clip0_36_193">
<rect width="100" height="100" fill="white"/>
</clipPath>
</defs>
</svg>
